<svg width="449" height="528" viewBox="0 0 449 528" fill="none" xmlns="http://www.w3.org/2000/svg">
    <g opacity="0.2">
        <!-- left top -->
        <path
            d="M91.7178 4.43066L43.2786 31.0727C41.9194 31.8203 41.8918 33.7636 43.2293 34.5495L88.7596 61.301C90.0806 62.0772 90.074 63.9897 88.7476 64.7567L16.4687 106.556C15.8506 106.913 15.4699 107.573 15.4699 108.287V193.364"
            stroke="#62AE01" stroke-width="2" />
        <path
            d="M116.045 76.917L42.6532 119.835C41.3125 120.619 41.3381 122.565 42.6989 123.313L88.3324 148.413C89.6952 149.162 89.7184 151.113 88.3737 151.894L66.7503 164.465C66.1337 164.823 65.3729 164.826 64.7535 164.473L39.6097 150.117"
            stroke="#62AE01" stroke-width="2" />
        <rect y="0.999935" width="4.04916" height="4.04916" rx="1"
            transform="matrix(-0.866044 0.499967 0.866044 0.499967 37.1216 146.363)" stroke="#62AE01"
            stroke-width="2" />
        <rect y="0.999935" width="5.86873" height="5.86873" rx="1"
            transform="matrix(-0.866044 0.499967 0.866044 0.499967 115.179 73.9875)" fill="#62AE01" stroke="#62AE01"
            stroke-width="2" />
        <rect y="0.999935" width="5.86873" height="5.86873" rx="1"
            transform="matrix(-0.866044 0.499967 0.866044 0.499967 90.8518 1)" fill="#62AE01" stroke="#62AE01"
            stroke-width="2" />

        <!-- left middle -->
        <rect y="0.999935" width="9.14984" height="9.14984" rx="1"
            transform="matrix(-0.866044 0.499967 0.866044 0.499967 14.6035 268.719)" fill="#62AE01" stroke="#62AE01"
            stroke-width="2" />

        <!-- left bottom -->
        <path d="M0.921631 423.367L80.1399 469.692C81.4681 470.469 81.4584 472.392 80.1224 473.155L21.3567 506.728"
            stroke="#62AE01" stroke-width="2" />

        <!-- right top -->
        <path
            d="M347.251 264.508L398.807 292.864C400.166 293.612 400.193 295.555 398.856 296.341L350.209 324.924C348.888 325.7 348.894 327.612 350.221 328.379L427.112 372.846C427.731 373.203 428.111 373.863 428.111 374.577V464.871"
            stroke="#62AE01" stroke-width="2" />
        <path
            d="M321.452 341.375L399.467 386.997C400.808 387.781 400.782 389.727 399.422 390.475L350.653 417.299C349.29 418.049 349.267 419.999 350.612 420.781L373.789 434.254C374.405 434.613 375.166 434.616 375.785 434.262L402.511 419.003"
            stroke="#62AE01" stroke-width="2" />
        <rect y="0.999935" width="6.34475" height="6.34475" rx="1"
            transform="matrix(0.866044 0.499967 -0.866044 0.499967 404.783 414.156)" fill="#62AE01" stroke="#62AE01"
            stroke-width="2" />
        <rect y="0.999935" width="4.87631" height="4.87631" rx="1"
            transform="matrix(0.866044 0.499967 -0.866044 0.499967 322.318 338.219)" fill="white" stroke="#62AE01"
            stroke-width="2" />
        <rect y="0.999935" width="6.34475" height="6.34475" rx="1"
            transform="matrix(0.866044 0.499967 -0.866044 0.499967 348.117 260.836)" fill="#62AE01" stroke="#62AE01"
            stroke-width="2" />
        <path d="M432.96 170.875L354.913 216.515C353.579 217.295 353.596 219.228 354.943 219.985L392.406 241.024"
            stroke="#62AE01" stroke-width="2" />
        <rect y="0.999935" width="6.34475" height="6.34475" rx="1"
            transform="matrix(0.866044 0.499967 -0.866044 0.499967 395.775 238.625)" fill="#62AE01" stroke="#62AE01"
            stroke-width="2" />

        <!-- right middle -->
        <rect y="0.999935" width="9.14984" height="9.14984" rx="1"
            transform="matrix(0.866044 0.499967 -0.866044 0.499967 439.848 517.117)" fill="#62AE01" stroke="#62AE01"
            stroke-width="2" />
    </g>
</svg>