<svg width="847" height="151" viewBox="0 0 847 151" fill="none" xmlns="http://www.w3.org/2000/svg">
<g clip-path="url(#clip0_1_2)">
<path d="M92.1415 46.071C92.1415 71.5155 71.5149 92.1421 46.0711 92.1421C20.6267 92.1421 0 71.5155 0 46.071C0 20.6266 20.6267 0 46.0711 0C71.5149 0 92.1415 20.6266 92.1415 46.071ZM26.5908 46.071C26.5908 56.8294 35.3127 65.5507 46.0711 65.5507C56.8294 65.5507 65.5507 56.8294 65.5507 46.071C65.5507 35.3127 56.8294 26.5908 46.0711 26.5908C35.3127 26.5908 26.5908 35.3127 26.5908 46.071Z" fill="#BEFF6C"/>
<path d="M92.1415 104.142C92.1415 116.361 87.2877 128.08 78.6478 136.719C70.0078 145.359 58.2899 150.213 46.0711 150.213C33.8522 150.213 22.1337 145.359 13.4937 136.719C4.85377 128.08 0 116.361 0 104.142H26.5908C26.5908 109.309 28.6434 114.264 32.2962 117.917C35.9495 121.57 40.9045 123.622 46.0711 123.622C51.237 123.622 56.192 121.57 59.8453 117.917C63.4987 114.264 65.5507 109.309 65.5507 104.142H92.1415Z" fill="#BEFF6C"/>
<path d="M167.244 63.0952C166.857 61.6634 166.289 60.402 165.539 59.3111C164.789 58.1975 163.869 57.2543 162.778 56.4816C161.687 55.7089 160.437 55.1293 159.028 54.743C157.619 54.3339 156.073 54.1293 154.391 54.1293C151.005 54.1293 148.073 54.9475 145.596 56.5839C143.141 58.2202 141.244 60.6066 139.903 63.743C138.562 66.8566 137.891 70.6407 137.891 75.0952C137.891 79.5725 138.539 83.3907 139.835 86.5498C141.13 89.7089 143.005 92.118 145.46 93.777C147.914 95.4361 150.891 96.2657 154.391 96.2657C157.482 96.2657 160.096 95.7657 162.232 94.7657C164.391 93.743 166.028 92.2998 167.141 90.4361C168.255 88.5725 168.812 86.3793 168.812 83.8566L171.948 84.2316H154.971V71.9248H185.073V81.1634C185.073 87.4134 183.744 92.7657 181.085 97.2202C178.448 101.675 174.812 105.095 170.176 107.482C165.562 109.868 160.255 111.061 154.255 111.061C147.596 111.061 141.744 109.618 136.698 106.732C131.653 103.845 127.721 99.7316 124.903 94.3907C122.085 89.027 120.676 82.6634 120.676 75.2998C120.676 69.5725 121.528 64.493 123.232 60.0611C124.937 55.6066 127.312 51.8339 130.357 48.743C133.426 45.652 136.971 43.3111 140.994 41.7202C145.039 40.1293 149.391 39.3339 154.051 39.3339C158.096 39.3339 161.857 39.9134 165.335 41.0725C168.835 42.2316 171.926 43.868 174.607 45.9816C177.312 48.0952 179.505 50.6066 181.187 53.5157C182.869 56.4248 183.914 59.618 184.323 63.0952H167.244ZM219.497 111.095C214.019 111.095 209.292 110.016 205.315 107.857C201.36 105.675 198.315 102.572 196.178 98.5498C194.065 94.5043 193.008 89.6975 193.008 84.1293C193.008 78.7202 194.076 73.993 196.213 69.9475C198.349 65.8793 201.36 62.7202 205.247 60.4702C209.133 58.1975 213.713 57.0611 218.985 57.0611C222.713 57.0611 226.122 57.6407 229.213 58.7998C232.303 59.9589 234.974 61.6748 237.224 63.9475C239.474 66.2202 241.224 69.027 242.474 72.368C243.724 75.6861 244.349 79.493 244.349 83.7884V87.9475H198.838V78.2657H228.838C228.815 76.493 228.394 74.9134 227.576 73.527C226.758 72.1407 225.633 71.0611 224.201 70.2884C222.792 69.493 221.167 69.0952 219.326 69.0952C217.463 69.0952 215.792 69.5157 214.315 70.3566C212.838 71.1748 211.667 72.2998 210.803 73.7316C209.94 75.1407 209.485 76.743 209.44 78.5384V88.3907C209.44 90.527 209.86 92.402 210.701 94.0157C211.542 95.6066 212.735 96.8452 214.281 97.7316C215.826 98.618 217.667 99.0611 219.803 99.0611C221.281 99.0611 222.622 98.8566 223.826 98.4475C225.031 98.0384 226.065 97.4361 226.928 96.6407C227.792 95.8452 228.44 94.868 228.872 93.7089L244.178 94.152C243.542 97.5839 242.144 100.572 239.985 103.118C237.849 105.641 235.042 107.607 231.565 109.016C228.088 110.402 224.065 111.095 219.497 111.095ZM282.624 57.743V70.0157H248.943V57.743H282.624ZM255.965 110.107V55.0839C255.965 51.0384 256.727 47.6861 258.249 45.027C259.772 42.3452 261.886 40.3452 264.59 39.027C267.295 37.6861 270.42 37.0157 273.965 37.0157C276.284 37.0157 278.465 37.1975 280.511 37.5611C282.579 37.902 284.113 38.2089 285.113 38.4816L282.454 50.6861C281.84 50.4816 281.09 50.3111 280.204 50.1748C279.34 50.0384 278.522 49.9702 277.749 49.9702C275.795 49.9702 274.454 50.402 273.727 51.2657C272.999 52.1293 272.636 53.3111 272.636 54.8111V110.107H255.965ZM313.434 111.095C307.957 111.095 303.23 110.016 299.252 107.857C295.298 105.675 292.252 102.572 290.116 98.5498C288.002 94.5043 286.945 89.6975 286.945 84.1293C286.945 78.7202 288.014 73.993 290.15 69.9475C292.286 65.8793 295.298 62.7202 299.184 60.4702C303.07 58.1975 307.65 57.0611 312.923 57.0611C316.65 57.0611 320.059 57.6407 323.15 58.7998C326.241 59.9589 328.911 61.6748 331.161 63.9475C333.411 66.2202 335.161 69.027 336.411 72.368C337.661 75.6861 338.286 79.493 338.286 83.7884V87.9475H292.775V78.2657H322.775C322.752 76.493 322.332 74.9134 321.514 73.527C320.695 72.1407 319.57 71.0611 318.139 70.2884C316.73 69.493 315.105 69.0952 313.264 69.0952C311.4 69.0952 309.73 69.5157 308.252 70.3566C306.775 71.1748 305.605 72.2998 304.741 73.7316C303.877 75.1407 303.423 76.743 303.377 78.5384V88.3907C303.377 90.527 303.798 92.402 304.639 94.0157C305.48 95.6066 306.673 96.8452 308.218 97.7316C309.764 98.618 311.605 99.0611 313.741 99.0611C315.218 99.0611 316.559 98.8566 317.764 98.4475C318.968 98.0384 320.002 97.4361 320.866 96.6407C321.73 95.8452 322.377 94.868 322.809 93.7089L338.116 94.152C337.48 97.5839 336.082 100.572 333.923 103.118C331.786 105.641 328.98 107.607 325.502 109.016C322.025 110.402 318.002 111.095 313.434 111.095ZM392.516 73.7316L377.21 74.1407C377.051 73.0498 376.619 72.0839 375.914 71.243C375.21 70.3793 374.289 69.7089 373.153 69.2316C372.039 68.7316 370.744 68.4816 369.266 68.4816C367.335 68.4816 365.687 68.868 364.323 69.6407C362.982 70.4134 362.323 71.4589 362.346 72.777C362.323 73.7998 362.732 74.6861 363.573 75.4361C364.437 76.1861 365.971 76.7884 368.176 77.243L378.266 79.152C383.494 80.152 387.38 81.8111 389.926 84.1293C392.494 86.4475 393.789 89.5157 393.812 93.3339C393.789 96.9248 392.721 100.05 390.607 102.709C388.516 105.368 385.653 107.436 382.016 108.913C378.38 110.368 374.221 111.095 369.539 111.095C362.062 111.095 356.164 109.561 351.846 106.493C347.551 103.402 345.096 99.2657 344.482 94.0839L360.948 93.6748C361.312 95.5839 362.255 97.0384 363.778 98.0384C365.301 99.0384 367.244 99.5384 369.607 99.5384C371.744 99.5384 373.482 99.1407 374.823 98.3452C376.164 97.5498 376.846 96.493 376.869 95.1748C376.846 93.993 376.323 93.0498 375.301 92.3452C374.278 91.618 372.676 91.0498 370.494 90.6407L361.357 88.902C356.107 87.9475 352.198 86.1861 349.63 83.618C347.062 81.027 345.789 77.7316 345.812 73.7316C345.789 70.2316 346.721 67.243 348.607 64.7657C350.494 62.2657 353.176 60.3566 356.653 59.0384C360.13 57.7202 364.232 57.0611 368.96 57.0611C376.051 57.0611 381.641 58.5498 385.732 61.527C389.823 64.4816 392.085 68.5498 392.516 73.7316ZM431.576 57.743V70.0157H398.542V57.743H431.576ZM405.463 45.1975H422.133V93.6407C422.133 94.6634 422.292 95.493 422.61 96.1293C422.951 96.743 423.44 97.1861 424.076 97.4589C424.713 97.7089 425.474 97.8339 426.36 97.8339C426.997 97.8339 427.667 97.777 428.372 97.6634C429.099 97.527 429.644 97.4134 430.008 97.3225L432.531 109.357C431.735 109.584 430.61 109.868 429.156 110.209C427.724 110.55 426.008 110.766 424.008 110.857C420.099 111.038 416.747 110.584 413.951 109.493C411.178 108.379 409.053 106.652 407.576 104.311C406.122 101.97 405.417 99.027 405.463 95.4816V45.1975Z" fill="#1E1E1E"/>
<path d="M456.426 110.107V40.2884H485.539C490.766 40.2884 495.141 41.027 498.664 42.5043C502.21 43.9816 504.869 46.0498 506.641 48.7089C508.437 51.368 509.335 54.4475 509.335 57.9475C509.335 60.6066 508.778 62.9816 507.664 65.0725C506.551 67.1407 505.016 68.8566 503.062 70.2202C501.107 71.5839 498.846 72.5384 496.278 73.0839V73.7657C499.096 73.902 501.698 74.6634 504.085 76.0498C506.494 77.4361 508.426 79.368 509.88 81.8452C511.335 84.2998 512.062 87.2089 512.062 90.5725C512.062 94.3225 511.107 97.6748 509.198 100.629C507.289 103.561 504.528 105.879 500.914 107.584C497.301 109.266 492.914 110.107 487.755 110.107H456.426ZM473.301 96.5043H483.732C487.391 96.5043 490.085 95.8111 491.812 94.4248C493.562 93.0384 494.437 91.1066 494.437 88.6293C494.437 86.8339 494.016 85.2884 493.176 83.993C492.335 82.6748 491.141 81.6634 489.596 80.9589C488.051 80.2316 486.198 79.868 484.039 79.868H473.301V96.5043ZM473.301 68.993H482.641C484.482 68.993 486.119 68.6861 487.551 68.0725C488.982 67.4589 490.096 66.5725 490.891 65.4134C491.71 64.2543 492.119 62.8566 492.119 61.2202C492.119 58.8793 491.289 57.0384 489.63 55.6975C487.971 54.3566 485.732 53.6861 482.914 53.6861H473.301V68.993ZM553.96 87.5043V57.743H570.596V110.107H554.71V100.357H554.164C553.005 103.561 551.028 106.107 548.232 107.993C545.46 109.857 542.107 110.788 538.176 110.788C534.607 110.788 531.471 109.97 528.766 108.334C526.062 106.697 523.96 104.413 522.46 101.482C520.96 98.527 520.198 95.0725 520.176 91.118V57.743H536.846V87.8452C536.869 90.6861 537.619 92.9248 539.096 94.5611C540.573 96.1975 542.585 97.0157 545.13 97.0157C546.789 97.0157 548.278 96.652 549.596 95.9248C550.937 95.1748 551.994 94.0952 552.766 92.6861C553.562 91.2543 553.96 89.527 553.96 87.5043ZM581.207 110.107V57.743H597.877V110.107H581.207ZM589.559 51.6407C587.218 51.6407 585.207 50.868 583.525 49.3225C581.843 47.7543 581.002 45.868 581.002 43.6634C581.002 41.4816 581.843 39.618 583.525 38.0725C585.207 36.5043 587.218 35.7202 589.559 35.7202C591.923 35.7202 593.934 36.5043 595.593 38.0725C597.275 39.618 598.116 41.4816 598.116 43.6634C598.116 45.868 597.275 47.7543 595.593 49.3225C593.934 50.868 591.923 51.6407 589.559 51.6407ZM625.159 40.2884V110.107H608.488V40.2884H625.159ZM654.894 110.857C651.031 110.857 647.519 109.857 644.36 107.857C641.201 105.857 638.678 102.857 636.792 98.8566C634.906 94.8566 633.963 89.8907 633.963 83.9589C633.963 77.7998 634.94 72.7316 636.894 68.7543C638.849 64.777 641.406 61.8339 644.565 59.9248C647.747 58.0157 651.167 57.0611 654.826 57.0611C657.576 57.0611 659.928 57.5384 661.883 58.493C663.838 59.4248 665.451 60.6293 666.724 62.1066C667.997 63.5839 668.963 65.118 669.622 66.7089H669.963V40.2884H686.633V110.107H670.133V101.618H669.622C668.917 103.232 667.917 104.743 666.622 106.152C665.326 107.561 663.701 108.697 661.747 109.561C659.815 110.425 657.531 110.857 654.894 110.857ZM660.69 97.868C662.713 97.868 664.44 97.2998 665.872 96.1634C667.303 95.0043 668.406 93.3793 669.178 91.2884C669.951 89.1975 670.338 86.743 670.338 83.9248C670.338 81.0611 669.951 78.5952 669.178 76.527C668.428 74.4589 667.326 72.868 665.872 71.7543C664.44 70.6407 662.713 70.0839 660.69 70.0839C658.622 70.0839 656.872 70.652 655.44 71.7884C654.008 72.9248 652.917 74.527 652.167 76.5952C651.44 78.6634 651.076 81.1066 651.076 83.9248C651.076 86.743 651.451 89.1975 652.201 91.2884C652.951 93.3793 654.031 95.0043 655.44 96.1634C656.872 97.2998 658.622 97.868 660.69 97.868ZM721.653 111.095C716.176 111.095 711.448 110.016 707.471 107.857C703.516 105.675 700.471 102.572 698.335 98.5498C696.221 94.5043 695.164 89.6975 695.164 84.1293C695.164 78.7202 696.232 73.993 698.369 69.9475C700.505 65.8793 703.516 62.7202 707.403 60.4702C711.289 58.1975 715.869 57.0611 721.141 57.0611C724.869 57.0611 728.278 57.6407 731.369 58.7998C734.46 59.9589 737.13 61.6748 739.38 63.9475C741.63 66.2202 743.38 69.027 744.63 72.368C745.88 75.6861 746.505 79.493 746.505 83.7884V87.9475H700.994V78.2657H730.994C730.971 76.493 730.551 74.9134 729.732 73.527C728.914 72.1407 727.789 71.0611 726.357 70.2884C724.948 69.493 723.323 69.0952 721.482 69.0952C719.619 69.0952 717.948 69.5157 716.471 70.3566C714.994 71.1748 713.823 72.2998 712.96 73.7316C712.096 75.1407 711.641 76.743 711.596 78.5384V88.3907C711.596 90.527 712.016 92.402 712.857 94.0157C713.698 95.6066 714.891 96.8452 716.437 97.7316C717.982 98.618 719.823 99.0611 721.96 99.0611C723.437 99.0611 724.778 98.8566 725.982 98.4475C727.187 98.0384 728.221 97.4361 729.085 96.6407C729.948 95.8452 730.596 94.868 731.028 93.7089L746.335 94.152C745.698 97.5839 744.301 100.572 742.141 103.118C740.005 105.641 737.198 107.607 733.721 109.016C730.244 110.402 726.221 111.095 721.653 111.095ZM755.019 110.107V57.743H771.213V67.2884H771.758C772.713 63.8339 774.269 61.2657 776.428 59.5839C778.588 57.8793 781.099 57.027 783.963 57.027C784.735 57.027 785.531 57.0839 786.349 57.1975C787.167 57.2884 787.928 57.4361 788.633 57.6407V72.1293C787.838 71.8566 786.792 71.6407 785.497 71.4816C784.224 71.3225 783.088 71.243 782.088 71.243C780.11 71.243 778.326 71.6861 776.735 72.5725C775.167 73.4361 773.928 74.652 773.019 76.2202C772.133 77.7657 771.69 79.5839 771.69 81.6748V110.107H755.019ZM841.141 73.7316L825.835 74.1407C825.676 73.0498 825.244 72.0839 824.539 71.243C823.835 70.3793 822.914 69.7089 821.778 69.2316C820.664 68.7316 819.369 68.4816 817.891 68.4816C815.96 68.4816 814.312 68.868 812.948 69.6407C811.607 70.4134 810.948 71.4589 810.971 72.777C810.948 73.7998 811.357 74.6861 812.198 75.4361C813.062 76.1861 814.596 76.7884 816.801 77.243L826.891 79.152C832.119 80.152 836.005 81.8111 838.551 84.1293C841.119 86.4475 842.414 89.5157 842.437 93.3339C842.414 96.9248 841.346 100.05 839.232 102.709C837.141 105.368 834.278 107.436 830.641 108.913C827.005 110.368 822.846 111.095 818.164 111.095C810.687 111.095 804.789 109.561 800.471 106.493C796.176 103.402 793.721 99.2657 793.107 94.0839L809.573 93.6748C809.937 95.5839 810.88 97.0384 812.403 98.0384C813.926 99.0384 815.869 99.5384 818.232 99.5384C820.369 99.5384 822.107 99.1407 823.448 98.3452C824.789 97.5498 825.471 96.493 825.494 95.1748C825.471 93.993 824.948 93.0498 823.926 92.3452C822.903 91.618 821.301 91.0498 819.119 90.6407L809.982 88.902C804.732 87.9475 800.823 86.1861 798.255 83.618C795.687 81.027 794.414 77.7316 794.437 73.7316C794.414 70.2316 795.346 67.243 797.232 64.7657C799.119 62.2657 801.801 60.3566 805.278 59.0384C808.755 57.7202 812.857 57.0611 817.585 57.0611C824.676 57.0611 830.266 58.5498 834.357 61.527C838.448 64.4816 840.71 68.5498 841.141 73.7316Z" fill="#1E1E1E"/>
</g>
<defs>
<clipPath id="clip0_1_2">
<rect width="846.141" height="150.213" fill="white"/>
</clipPath>
</defs>
</svg>
