<svg width="250" height="250" viewBox="0 0 250 250" fill="none" xmlns="http://www.w3.org/2000/svg">
<rect width="250" height="250" rx="125" fill="#1E1E1E"/>
<path d="M171.071 95.9645C171.071 121.409 150.444 142.036 125 142.036C99.5559 142.036 78.9293 121.409 78.9293 95.9645C78.9293 70.5201 99.5559 49.8934 125 49.8934C150.444 49.8934 171.071 70.5201 171.071 95.9645ZM105.52 95.9645C105.52 106.723 114.242 115.444 125 115.444C135.759 115.444 144.48 106.723 144.48 95.9645C144.48 85.2061 135.759 76.4843 125 76.4843C114.242 76.4843 105.52 85.2061 105.52 95.9645Z" fill="#BEFF6C"/>
<path d="M171.071 154.036C171.071 166.254 166.217 177.973 157.577 186.613C148.937 195.253 137.219 200.107 125 200.107C112.781 200.107 101.063 195.253 92.423 186.613C83.783 177.973 78.9293 166.254 78.9293 154.036H105.52C105.52 159.202 107.573 164.157 111.225 167.81C114.879 171.463 119.834 173.516 125 173.516C130.166 173.516 135.121 171.463 138.775 167.81C142.428 164.157 144.48 159.202 144.48 154.036H171.071Z" fill="#BEFF6C"/>
</svg>
